ply
format ascii 1.0
comment VCGLIB generated
element vertex 8
property float x
property float y
property float z
element face 12
property list uchar int vertex_indices
end_header
2.26527 -2.12132 -0.0211631 
2.26527 2.12132 -0.0211631 
2.26528 2.12132 0.521163 
2.26527 -2.12132 0.521163 
-2.26527 -2.12132 -0.0211631 
-2.26527 -2.12132 0.521163 
-2.26527 2.12132 0.521163 
-2.26527 2.12132 -0.0211631 
3 1 0 4 
3 4 7 1 
3 2 6 5 
3 5 3 2 
3 1 2 3 
3 3 0 1 
3 0 3 5 
3 5 4 0 
3 4 5 6 
3 6 7 4 
3 2 1 7 
3 7 6 2 
